<mxfile host="Electron" agent="Mozilla/5.0 (Windows NT 10.0; Win64; x64) AppleWebKit/537.36 (KHTML, like Gecko) draw.io/25.0.2 Chrome/128.0.6613.186 Electron/32.2.5 Safari/537.36" version="25.0.2">
  <diagram name="Page-1" id="1bBgSPHtbA6kbr443msK">
    <mxGraphModel dx="574" dy="342" grid="1" gridSize="10" guides="1" tooltips="1" connect="1" arrows="1" fold="1" page="1" pageScale="1" pageWidth="827" pageHeight="1169" math="0" shadow="0">
      <root>
        <mxCell id="0" />
        <mxCell id="1" parent="0" />
        <mxCell id="LAGPOGJEnIeL_1bWRzur-22" value="" style="rounded=0;whiteSpace=wrap;html=1;" vertex="1" parent="1">
          <mxGeometry x="140" y="180" width="320" height="240" as="geometry" />
        </mxCell>
        <mxCell id="LAGPOGJEnIeL_1bWRzur-9" style="edgeStyle=orthogonalEdgeStyle;rounded=0;orthogonalLoop=1;jettySize=auto;html=1;exitX=0.75;exitY=1;exitDx=0;exitDy=0;endArrow=none;endFill=0;startArrow=classic;startFill=1;" edge="1" parent="1" source="LAGPOGJEnIeL_1bWRzur-2">
          <mxGeometry relative="1" as="geometry">
            <mxPoint x="190.31034482758628" y="200" as="targetPoint" />
          </mxGeometry>
        </mxCell>
        <mxCell id="LAGPOGJEnIeL_1bWRzur-10" style="edgeStyle=orthogonalEdgeStyle;rounded=0;orthogonalLoop=1;jettySize=auto;html=1;exitX=0.25;exitY=1;exitDx=0;exitDy=0;startArrow=classic;startFill=1;endArrow=none;endFill=0;" edge="1" parent="1" source="LAGPOGJEnIeL_1bWRzur-2">
          <mxGeometry relative="1" as="geometry">
            <mxPoint x="250.31034482758628" y="200" as="targetPoint" />
          </mxGeometry>
        </mxCell>
        <mxCell id="LAGPOGJEnIeL_1bWRzur-17" style="edgeStyle=orthogonalEdgeStyle;rounded=0;orthogonalLoop=1;jettySize=auto;html=1;exitX=0.5;exitY=0;exitDx=0;exitDy=0;entryX=0.75;entryY=1;entryDx=0;entryDy=0;" edge="1" parent="1" source="LAGPOGJEnIeL_1bWRzur-2" target="LAGPOGJEnIeL_1bWRzur-3">
          <mxGeometry relative="1" as="geometry" />
        </mxCell>
        <mxCell id="LAGPOGJEnIeL_1bWRzur-2" value="" style="shape=trapezoid;perimeter=trapezoidPerimeter;whiteSpace=wrap;html=1;fixedSize=1;rotation=-180;" vertex="1" parent="1">
          <mxGeometry x="160" y="240" width="120" height="40" as="geometry" />
        </mxCell>
        <mxCell id="LAGPOGJEnIeL_1bWRzur-20" style="edgeStyle=orthogonalEdgeStyle;rounded=0;orthogonalLoop=1;jettySize=auto;html=1;exitX=0.5;exitY=0;exitDx=0;exitDy=0;" edge="1" parent="1" source="LAGPOGJEnIeL_1bWRzur-3">
          <mxGeometry relative="1" as="geometry">
            <mxPoint x="250" y="400" as="targetPoint" />
          </mxGeometry>
        </mxCell>
        <mxCell id="LAGPOGJEnIeL_1bWRzur-3" value="" style="shape=trapezoid;perimeter=trapezoidPerimeter;whiteSpace=wrap;html=1;fixedSize=1;rotation=-180;" vertex="1" parent="1">
          <mxGeometry x="190" y="320" width="120" height="40" as="geometry" />
        </mxCell>
        <mxCell id="LAGPOGJEnIeL_1bWRzur-6" value="" style="shape=orEllipse;perimeter=ellipsePerimeter;whiteSpace=wrap;html=1;backgroundOutline=1;" vertex="1" parent="1">
          <mxGeometry x="235" y="325" width="30" height="30" as="geometry" />
        </mxCell>
        <mxCell id="LAGPOGJEnIeL_1bWRzur-7" value="" style="shape=sumEllipse;perimeter=ellipsePerimeter;whiteSpace=wrap;html=1;backgroundOutline=1;" vertex="1" parent="1">
          <mxGeometry x="205" y="245" width="30" height="30" as="geometry" />
        </mxCell>
        <mxCell id="LAGPOGJEnIeL_1bWRzur-18" style="edgeStyle=orthogonalEdgeStyle;rounded=0;orthogonalLoop=1;jettySize=auto;html=1;exitX=0.5;exitY=0;exitDx=0;exitDy=0;entryX=0.25;entryY=1;entryDx=0;entryDy=0;" edge="1" parent="1" source="LAGPOGJEnIeL_1bWRzur-11" target="LAGPOGJEnIeL_1bWRzur-3">
          <mxGeometry relative="1" as="geometry">
            <Array as="points">
              <mxPoint x="400" y="290" />
              <mxPoint x="280" y="290" />
            </Array>
          </mxGeometry>
        </mxCell>
        <mxCell id="LAGPOGJEnIeL_1bWRzur-11" value="&lt;font face=&quot;Times New Roman&quot;&gt;Register&lt;/font&gt;" style="rounded=0;whiteSpace=wrap;html=1;" vertex="1" parent="1">
          <mxGeometry x="360" y="320" width="80" height="30" as="geometry" />
        </mxCell>
        <mxCell id="LAGPOGJEnIeL_1bWRzur-12" value="&lt;font face=&quot;Times New Roman&quot;&gt;&lt;i&gt;X&lt;/i&gt;&lt;/font&gt;" style="text;html=1;align=center;verticalAlign=middle;resizable=0;points=[];autosize=1;strokeColor=none;fillColor=none;" vertex="1" parent="1">
          <mxGeometry x="175" y="180" width="30" height="30" as="geometry" />
        </mxCell>
        <mxCell id="LAGPOGJEnIeL_1bWRzur-13" value="&lt;font face=&quot;Times New Roman&quot;&gt;&lt;i&gt;Y&lt;/i&gt;&lt;/font&gt;" style="text;html=1;align=center;verticalAlign=middle;resizable=0;points=[];autosize=1;strokeColor=none;fillColor=none;" vertex="1" parent="1">
          <mxGeometry x="235" y="178" width="30" height="30" as="geometry" />
        </mxCell>
        <mxCell id="LAGPOGJEnIeL_1bWRzur-19" value="&lt;font face=&quot;Times New Roman&quot;&gt;&lt;i&gt;Z&lt;/i&gt;&lt;/font&gt;" style="text;html=1;align=center;verticalAlign=middle;resizable=0;points=[];autosize=1;strokeColor=none;fillColor=none;" vertex="1" parent="1">
          <mxGeometry x="259" y="275" width="30" height="30" as="geometry" />
        </mxCell>
        <mxCell id="LAGPOGJEnIeL_1bWRzur-21" value="&lt;font face=&quot;Times New Roman&quot;&gt;&lt;i&gt;P&lt;/i&gt;&lt;/font&gt;" style="text;html=1;align=center;verticalAlign=middle;resizable=0;points=[];autosize=1;strokeColor=none;fillColor=none;" vertex="1" parent="1">
          <mxGeometry x="234" y="391" width="30" height="30" as="geometry" />
        </mxCell>
      </root>
    </mxGraphModel>
  </diagram>
</mxfile>
